<?xml version="1.0" encoding="UTF-8"?>
<svg id="Layer_1" xmlns="http://www.w3.org/2000/svg" version="1.1" viewBox="0 0 595.3 173">
  <!-- Generator: Adobe Illustrator 29.0.1, SVG Export Plug-In . SVG Version: 2.1.0 Build 192)  -->
  <defs>
    <style>
      .st0 {
        fill: #95c93d;
      }

      .st1 {
        fill: #fff;
      }
    </style>
  </defs>
  <g>
    <path class="st1" d="M288.6,21.4l-12.5,62.3h-17.2l-17.9-29-5.8,29h-20.5l12.4-62.3h17.2l17.9,29,5.8-29h20.5Z"/>
    <path class="st1" d="M304.6,81.5c-4.8-2.3-8.5-5.6-11-9.8s-3.9-9-3.9-14.5,1.7-13.7,5-19.3c3.4-5.7,8-10.1,14-13.2,6-3.1,12.7-4.7,20.2-4.7s11.9,1.2,16.7,3.5c4.8,2.3,8.5,5.6,11,9.8s3.9,9,3.9,14.5-1.7,13.7-5,19.3c-3.4,5.7-8,10.1-14,13.2-6,3.1-12.7,4.7-20.2,4.7s-11.9-1.2-16.7-3.5h0ZM331.8,65.5c2.5-1.7,4.3-4,5.6-6.9,1.3-2.9,2-6.1,2-9.5s-1.1-6.6-3.2-8.8c-2.2-2.2-5.1-3.3-8.9-3.3s-6.2.9-8.7,2.6c-2.5,1.7-4.3,4-5.6,6.9s-2,6.1-2,9.5,1.1,6.6,3.2,8.8c2.2,2.2,5.1,3.3,8.9,3.3s6.2-.9,8.7-2.6h0Z"/>
    <path class="st1" d="M371.2,83.3c-4.7-1.2-8.7-2.7-11.7-4.6l8.1-15.5c6.7,3.9,13.7,5.8,21,5.8s4.7-.3,6.1-1c1.4-.6,2.1-1.5,2.1-2.7s-.7-1.9-2.2-2.6c-1.5-.6-3.8-1.4-6.9-2.1-4.1-1.1-7.6-2.1-10.3-3.2s-5.1-2.8-7.2-5.1c-2-2.3-3.1-5.3-3.1-9s1.3-8.8,3.8-12.3,6.1-6.3,10.9-8.2c4.7-1.9,10.4-2.9,16.8-2.9s8.9.5,12.9,1.4,7.5,2.2,10.4,4l-7.6,15.3c-2.4-1.5-5.1-2.7-8-3.5s-5.9-1.2-9-1.2-5.2.4-6.8,1.2-2.4,1.8-2.4,2.9.7,2,2.2,2.7c1.5.6,3.8,1.4,7.2,2.1,4,1,7.4,2,10.2,3s5.1,2.7,7.2,5,3,5.2,3,8.9-1.3,8.7-3.8,12.2c-2.5,3.5-6.2,6.2-10.9,8.1-4.7,1.9-10.3,2.9-16.7,2.9s-10.5-.6-15.2-1.7h0Z"/>
    <path class="st1" d="M429.6,83.3c-4.7-1.2-8.7-2.7-11.7-4.6l8.1-15.5c6.7,3.9,13.7,5.8,21,5.8s4.7-.3,6.1-1c1.4-.6,2.1-1.5,2.1-2.7s-.7-1.9-2.2-2.6c-1.5-.6-3.8-1.4-6.9-2.1-4.1-1.1-7.6-2.1-10.3-3.2s-5.1-2.8-7.2-5.1c-2-2.3-3.1-5.3-3.1-9s1.3-8.8,3.8-12.3,6.1-6.3,10.9-8.2c4.7-1.9,10.4-2.9,16.8-2.9s8.9.5,12.9,1.4,7.5,2.2,10.4,4l-7.6,15.3c-2.4-1.5-5.1-2.7-8-3.5s-5.9-1.2-9-1.2-5.2.4-6.8,1.2-2.4,1.8-2.4,2.9.7,2,2.2,2.7c1.5.6,3.8,1.4,7.2,2.1,4,1,7.4,2,10.2,3s5.1,2.7,7.2,5,3,5.2,3,8.9-1.3,8.7-3.8,12.2c-2.5,3.5-6.2,6.2-10.9,8.1-4.7,1.9-10.3,2.9-16.7,2.9s-10.5-.6-15.2-1.7h0Z"/>
    <path class="st1" d="M523.9,72.8h-23.8l-6.2,10.9h-22.1l39.7-62.3h20.6l14.8,62.3h-20.9l-2-10.9h0ZM521,57.7l-3-15.9-9.2,15.9h12.2Z"/>
  </g>
  <g>
    <path class="st1" d="M272.8,91.6h21l-9.2,46h28.1l-3.3,16.3h-49.1l12.5-62.3Z"/>
    <path class="st1" d="M331,91.6h21l-12.5,62.3h-21l12.5-62.3Z"/>
    <path class="st1" d="M362.5,153.5c-4.7-1.2-8.7-2.7-11.7-4.6l8.1-15.5c6.7,3.9,13.7,5.8,21,5.8s4.7-.3,6.1-1c1.4-.6,2.1-1.5,2.1-2.7s-.7-1.9-2.2-2.6c-1.5-.6-3.8-1.4-6.9-2.1-4.1-1.1-7.6-2.1-10.3-3.2s-5.1-2.8-7.2-5.1c-2-2.3-3.1-5.3-3.1-9s1.3-8.8,3.8-12.3,6.1-6.3,10.9-8.2c4.7-1.9,10.4-2.9,16.8-2.9s8.9.5,12.9,1.4,7.5,2.2,10.4,4l-7.6,15.3c-2.4-1.5-5.1-2.7-8-3.5s-5.9-1.2-9-1.2-5.2.4-6.8,1.2-2.4,1.8-2.4,2.9.7,2,2.2,2.7c1.5.6,3.8,1.4,7.2,2.1,4,1,7.4,2,10.2,3,2.8,1.1,5.1,2.7,7.2,5s3,5.2,3,8.9-1.3,8.7-3.8,12.2c-2.5,3.5-6.2,6.2-10.9,8.1-4.7,1.9-10.3,2.9-16.7,2.9s-10.5-.6-15.2-1.7h0Z"/>
    <path class="st1" d="M436.5,107.9h-18.2l3.3-16.3h57.5l-3.3,16.3h-18.2l-9.2,46h-21l9.2-46Z"/>
    <path class="st1" d="M510.9,143h-23.8l-6.2,10.9h-22.1l39.7-62.3h20.6l14.8,62.3h-20.9l-2-10.9h0ZM508,127.9l-3-15.9-9.2,15.9h12.2Z"/>
  </g>
  <polygon class="st0" points="218.5 20.7 207.9 20.7 173.3 20.7 163.9 20.7 151.5 83.1 113 20.7 75.9 20.7 49.2 154.6 93.1 154.6 105.6 92.2 144 154.6 146.6 154.6 181.1 154.6 252.1 154.6 259.2 119.6 198.8 119.6 218.5 20.7"/>
  <path class="st1" d="M265.5,92.2l-4.7,19.5-51.5.5,4.7-19.5,51.5-.5Z"/>
</svg>